HIERARCHY
ROOT Hips
{
  OFFSET 2.26061 22.2878 23.7974
  CHANNELS 6 Xposition Yposition Zposition Zrotation Xrotation Yrotation
  JOINT LeftUpLeg
  {
    OFFSET 8.64259 1.95398 -2.38835
    CHANNELS 3 Zrotation Xrotation Yrotation
    JOINT LeftLeg
    {
      OFFSET 43.7702 0 0
      CHANNELS 3 Zrotation Xrotation Yrotation
      JOINT LeftFoot
      {
        OFFSET 40.6238 0 0
        CHANNELS 3 Zrotation Xrotation Yrotation
        JOINT LeftToeBase
        {
          OFFSET 12.7242 0 0
          CHANNELS 3 Zrotation Xrotation Yrotation
          End Site
          {
            OFFSET 0 0 0
          }
        }
      }
    }
  }
  JOINT RightUpLeg
  {
    OFFSET -8.2249 1.95398 -2.59336
    CHANNELS 3 Zrotation Xrotation Yrotation
    JOINT RightLeg
    {
      OFFSET 43.5653 0 0
      CHANNELS 3 Zrotation Xrotation Yrotation
      JOINT RightFoot
      {
        OFFSET 40.6238 0 0
        CHANNELS 3 Zrotation Xrotation Yrotation
        JOINT RightToeBase
        {
          OFFSET 12.7242 0 0
          CHANNELS 3 Zrotation Xrotation Yrotation
          End Site
          {
            OFFSET 0 0 0
          }
        }
      }
    }
  }
  JOINT Spine
  {
    OFFSET 0.165834 0.87714 6.61349
    CHANNELS 3 Zrotation Xrotation Yrotation
    JOINT Spine1
    {
      OFFSET 7.38963 1.71661e-005 0
      CHANNELS 3 Zrotation Xrotation Yrotation
      JOINT Spine2
      {
        OFFSET 11.9445 1.14441e-005 0
        CHANNELS 3 Zrotation Xrotation Yrotation
        JOINT Spine3
        {
          OFFSET 14.7254 4.19617e-005 0
          CHANNELS 3 Zrotation Xrotation Yrotation
          JOINT Spine4
          {
            OFFSET 10.9679 0 0
            CHANNELS 3 Zrotation Xrotation Yrotation
            JOINT RightShoulder
            {
              OFFSET 2.46616 -1.6653 3.69651
              CHANNELS 3 Zrotation Xrotation Yrotation
              JOINT RightArm
              {
                OFFSET 13.0012 0 0
                CHANNELS 3 Zrotation Xrotation Yrotation
                JOINT RightForeArm
                {
                  OFFSET 28.7848 1.52588e-005 0
                  CHANNELS 3 Zrotation Xrotation Yrotation
                  JOINT RightHand
                  {
                    OFFSET 26.5688 1.52588e-005 0
                    CHANNELS 3 Zrotation Xrotation Yrotation
                    End Site
                    {
                      OFFSET 0 0 0
                    }
                  }
                }
              }
            }
            JOINT LeftShoulder
            {
              OFFSET 2.38034 -1.29275 -3.7523
              CHANNELS 3 Zrotation Xrotation Yrotation
              JOINT LeftArm
              {
                OFFSET 16.3182 6.10351e-005 0
                CHANNELS 3 Zrotation Xrotation Yrotation
                JOINT LeftForeArm
                {
                  OFFSET 27.0901 0 0
                  CHANNELS 3 Zrotation Xrotation Yrotation
                  JOINT LeftHand
                  {
                    OFFSET 24.5451 1.52588e-005 0
                    CHANNELS 3 Zrotation Xrotation Yrotation
                    End Site
                    {
                      OFFSET 0 0 0
                    }
                  }
                }
              }
            }
            JOINT Neck
            {
              OFFSET 5.0226 -0.0266342 0
              CHANNELS 3 Zrotation Xrotation Yrotation
              JOINT Head
              {
                OFFSET 6.69363 2.86102e-005 0
                CHANNELS 3 Zrotation Xrotation Yrotation
                End Site
                {
                  OFFSET 0 0 0
                }
              }
            }
          }
        }
      }
    }
  }
}
MOTION
Frames:	12
Frame Time:	0.0416667
83.9364 97.1273 -114.197 11.2338 -88.1021 11.5374 -168.297 15.7441 95.3362 -20.2063 -9.06762 -2.19017 66.7652 6.0965 7.69316 33.6595 3.3993 12.774 170.376 6.50578 89.0181 -18.8587 10.8799 1.75235 73.1343 -6.51462 -3.22579 29.3781 0.503253 -8.00489 0.55913 7.49537 -88.8592 11.8637 1.64877 2.09858 0.192174 1.73951 2.02399 -22.3328 0.942059 2.49686 -2.32013 0.942051 2.49685 88.0416 -51.7955 -103.344 27.6603 -2.83013 14.8225 -6.29494 -24.1641 -34.2815 -6.84559 -0.858893 4.41712 -94.725 -51.4777 72.1344 2.84578 14.7599 -17.5052 32.3718 -25.921 -115.151 8.24164 0.284691 -0.332189 -7.89073 -2.88474 13.5457 14.896 -6.16121 -15.9891 
84.8612 97.2072 -114.442 25.5121 -88.3613 26.1403 -167.324 15.5975 96.0097 -19.986 -10.3443 -3.13626 63.6285 2.85046 5.66999 32.3275 2.17847 11.2752 170.195 5.62896 88.7094 -17.708 11.6337 1.79821 72.7916 -6.32074 -3.14816 28.586 0.583045 -8.96706 0.480775 7.48782 -88.9163 11.8814 1.4662 2.00391 0.209805 1.55297 1.93746 -22.3154 0.796346 2.35175 -2.30279 0.79635 2.35175 88.0949 -51.683 -103.293 27.8484 -2.47032 15.5959 -6.4254 -23.2118 -34.3376 -6.40986 -0.812259 4.2261 -94.5082 -51.158 72.3599 1.95797 14.1795 -17.0311 31.1745 -25.4107 -115.807 7.35425 0.197404 -0.979435 -7.47456 -2.58782 13.7011 14.2278 -5.85252 -16.1483 
85.9044 97.1856 -114.749 32.5024 -88.8469 33.6302 -166.919 15.6488 96.4591 -20.3547 -9.5983 -3.52158 61.5006 0.66151 4.46568 32.441 2.39363 9.40089 170.248 4.98602 88.5943 -16.9789 11.7366 1.58021 72.4658 -6.33524 -3.1699 28.4148 0.645251 -9.82681 0.453997 7.49226 -88.9865 11.8745 1.37986 1.87323 0.202992 1.46096 1.8107 -22.3235 0.753243 2.20119 -2.31089 0.753242 2.20118 88.4991 -52.0209 -102.604 27.0936 -2.29529 15.6196 -6.33966 -23.5369 -33.9418 -6.18963 -0.790726 4.03444 -94.5083 -51.24 72.3831 1.68874 13.6013 -16.6818 29.973 -24.9532 -116.396 7.64966 0.110714 -2.07104 -6.96623 -2.38257 13.0694 13.6359 -5.43712 -15.1867 
86.8463 97.1125 -114.916 57.3392 -88.5972 58.5676 -166.545 16.0443 96.2466 -21.4392 -9.04723 -4.00142 61.8393 1.0717 3.95438 32.8279 2.80588 8.35324 169.872 5.31547 88.0303 -17.7143 12.0491 1.6146 72.1863 -6.16313 -3.09805 29.328 0.571717 -9.13086 0.365144 7.49057 -89.0309 11.88 1.18231 1.80578 0.208412 1.26063 1.75201 -22.3181 0.585082 2.07752 -2.30542 0.585072 2.07751 89.0465 -52.1849 -101.749 26.1482 -2.37992 15.2661 -5.23745 -23.2965 -32.7449 -5.58776 -0.755935 4.13181 -94.8424 -51.5951 71.9971 1.60926 13.1887 -16.564 28.8814 -24.5142 -116.805 6.89519 0.0206857 -3.00971 -6.46883 -2.24967 12.6092 13.3417 -5.18819 -14.5127 
87.6759 96.9955 -115.043 61.6779 -88.1794 62.9791 -166.123 16.8712 96.1386 -22.8561 -7.24923 -4.5677 62.1779 1.60752 4.23037 33.733 3.63858 8.10951 169.428 5.9396 87.5746 -18.6542 11.2061 1.74311 73.2551 -6.54095 -3.22935 28.5432 0.625212 -9.58824 0.333243 7.4818 -89.0735 11.8988 1.09894 1.72963 0.227263 1.174 1.67959 -22.2998 0.528431 1.97984 -2.28717 0.528445 1.97985 88.6123 -51.7733 -102.497 27.0717 -1.48511 16.5969 -5.86375 -21.7115 -33.2026 -5.31039 -0.735935 4.35457 -95.8739 -52.3813 70.7375 2.12068 12.8631 -16.538 28.5055 -24.2854 -116.882 7.10088 0.016126 -3.08284 -6.2066 -2.48895 12.6821 13.6647 -5.55605 -14.8654 
88.3536 96.9514 -115.257 75.023 -88.2627 76.2273 -165.99 17.157 96.0859 -24.3049 -4.56342 -4.74962 61.6752 1.30878 3.56907 35.4922 5.23404 7.35359 169.668 6.07577 87.319 -19.2505 11.1691 1.23103 73.6567 -6.70619 -3.28245 28.2886 0.592267 -8.98039 0.372373 7.51778 -89.0851 11.8267 1.17081 1.69949 0.155208 1.24447 1.64632 -22.3725 0.606035 1.9727 -2.35986 0.606028 1.97269 88.6505 -51.8909 -102.411 26.7872 -1.53098 16.9761 -3.83952 -19.1884 -32.6044 -5.74128 -0.705261 4.02583 -96.9975 -53.0252 69.3286 2.51188 12.6459 -16.3675 28.9571 -24.3401 -116.663 6.7515 0.0796221 -2.30616 -6.33489 -2.88326 12.1547 13.9722 -5.86444 -14.3833 
89.0264 96.9522 -115.45 83.0941 -88.3075 84.3371 -166.563 17.7747 95.9842 -26.0709 0.765441 -4.20116 59.9642 0.421074 4.06677 40.0522 9.15228 5.24312 170.016 6.06378 87.2382 -19.2252 11.1349 0.757614 73.7097 -6.68109 -3.26268 27.6587 0.611139 -8.99977 0.411593 7.54308 -89.079 11.7756 1.25133 1.7038 0.104192 1.32509 1.64709 -22.4238 0.681532 2.00101 -2.41118 0.681527 2.001 88.7036 -52.0873 -102.283 26.6563 -1.21586 17.1693 -5.16352 -21.1369 -32.5973 -5.78948 -0.766554 4.53582 -97.1494 -52.9617 69.0936 2.16978 13.3184 -16.6581 30.2542 -24.7131 -115.848 7.62753 0.129533 -1.93502 -6.07438 -3.05688 11.5115 13.8642 -5.97907 -14.1978 
89.6336 96.8639 -115.534 86.2288 -88.2882 87.4385 -167.81 18.0692 95.6824 -27.4195 8.08335 -3.0758 58.2342 -0.340153 4.55009 46.3824 14.5166 5.08811 170.25 6.32695 87.0151 -19.6497 10.9128 0.373608 73.9639 -6.52148 -3.17097 27.2628 0.589977 -8.57273 0.438637 7.56534 -89.0293 11.7295 1.32815 1.79524 0.0580882 1.40586 1.73506 -22.4692 0.727337 2.11129 -2.45654 0.727338 2.11128 88.9985 -52.5601 -101.731 26.31 -1.64077 16.6079 -4.20123 -21.2259 -31.7963 -5.58985 -0.749156 4.50686 -96.6428 -52.8338 69.7744 1.91478 13.4382 -17.0819 29.1043 -24.1423 -116.132 7.06162 0.137319 -1.57131 -5.14297 -3.15522 10.0704 13.0476 -5.8379 -13.3837 
90.2515 96.7693 -115.676 97.2888 -88.191 98.5873 -169.541 17.8018 95.4129 -28.4646 15.3556 -1.62091 57.8939 0.0128101 6.18705 49.5818 17.5193 6.57303 170.539 6.37853 86.9033 -20.244 11.0365 -0.0296125 74.2886 -6.39388 -3.09225 26.439 0.598988 -8.43708 0.48826 7.61351 -89.0509 11.6331 1.41607 1.74438 -0.0381853 1.49146 1.68038 -22.5665 0.826472 2.0892 -2.55389 0.826471 2.0892 89.2423 -52.6918 -101.338 26.0972 -1.65649 16.5155 -5.86294 -23.6466 -31.8735 -5.71237 -0.863632 5.74438 -96.9039 -53.2271 69.5232 1.85716 14.7575 -17.3308 33.0608 -25.5109 -114.703 9.10958 0.648607 2.97199 -4.83228 -3.45918 9.50457 13.2334 -6.03643 -12.6718 
90.8255 96.7337 -115.589 87.7181 -87.8477 89.0499 -171.568 17.5966 95.007 -29.0987 20.736 0.00538137 58.639 1.12831 7.53522 51.6413 18.9424 5.03121 170.637 6.50209 86.7442 -20.0496 11.7731 -0.182735 74.2606 -6.18883 -2.9982 26.1355 0.570198 -8.02521 0.500002 7.57427 -89.0578 11.7116 1.4367 1.72732 0.0403817 1.51133 1.66242 -22.4883 0.851281 2.07913 -2.47564 0.851278 2.07912 89.5071 -52.7063 -100.943 26.1127 -1.63705 16.5623 -5.51436 -23.1304 -31.978 -4.233 -0.71767 5.04478 -96.6871 -53.2135 69.8263 1.18188 15.3162 -17.1512 32.3211 -25.0006 -114.092 9.63768 0.279934 -0.827581 -4.61558 -3.80158 9.67605 12.9851 -6.41801 -12.9494 
91.4908 96.6848 -115.551 77.7287 -88.1591 79.107 -173.227 16.9338 94.4538 -29.0804 25.2537 1.28541 59.2404 1.97583 8.37381 53.0941 21.1747 8.96801 170.599 6.77121 86.4269 -19.8083 11.8722 -0.286343 73.9165 -5.91389 -2.88655 26.5592 0.541284 -7.77898 0.559774 7.50713 -89.0651 11.8454 1.553 1.69841 0.174411 1.62623 1.62842 -22.3553 0.970886 2.08651 -2.34268 0.970891 2.08651 89.513 -52.7051 -100.934 25.9157 -1.75282 16.7726 -5.59443 -23.4725 -32.0763 -3.40533 -0.688253 5.51303 -96.3452 -53.4146 70.3707 0.469383 16.2544 -16.616 34.278 -25.5375 -113.326 10.8871 0.576004 1.23106 -4.57398 -3.97325 9.58644 12.8528 -6.52633 -12.6661 
92.0817 96.6585 -115.642 76.6309 -88.9749 77.9794 -173.906 15.9425 93.9036 -28.7294 26.5339 1.83026 60.5323 3.23533 8.62187 53.0422 21.625 10.8156 170.663 6.62266 86.1167 -19.2986 11.8736 -0.579784 73.8134 -5.84856 -2.8605 25.958 0.535311 -7.59244 0.668205 7.51491 -89.0927 11.8294 1.75556 1.6221 0.158731 1.82523 1.54326 -22.3733 1.187 2.07461 -2.36067 1.187 2.0746 89.6176 -52.3094 -100.869 25.8652 -1.87378 16.6507 -5.68838 -23.6974 -31.839 -2.51834 -0.601617 4.49713 -96.596 -53.6698 70.0921 -0.554639 15.776 -15.5271 31.5374 -24.5787 -114.433 9.54848 0.34535 -0.391955 -4.1031 -4.04424 10.0379 12.5819 -6.66506 -12.8433 
